<svg width="807" height="290" viewBox="0 0 807 290" fill="none" xmlns="http://www.w3.org/2000/svg">
<path d="M9.81987e-05 226V182.4L132 4.8H200L70.8001 182.4L39.2001 173.2H259.6V226H9.81987e-05ZM150.8 284.8V226L152.8 173.2V120.8H214V284.8H150.8ZM398.981 289.6C376.048 289.6 355.515 284 337.381 272.8C319.248 261.333 304.981 244.8 294.581 223.2C284.181 201.6 278.981 175.467 278.981 144.8C278.981 114.133 284.181 88 294.581 66.4C304.981 44.8 319.248 28.4 337.381 17.2C355.515 5.73334 376.048 1.33514e-05 398.981 1.33514e-05C422.181 1.33514e-05 442.715 5.73334 460.581 17.2C478.715 28.4 492.981 44.8 503.381 66.4C513.781 88 518.981 114.133 518.981 144.8C518.981 175.467 513.781 201.6 503.381 223.2C492.981 244.8 478.715 261.333 460.581 272.8C442.715 284 422.181 289.6 398.981 289.6ZM398.981 234.8C409.915 234.8 419.381 231.733 427.381 225.6C435.648 219.467 442.048 209.733 446.581 196.4C451.381 183.067 453.781 165.867 453.781 144.8C453.781 123.733 451.381 106.533 446.581 93.2C442.048 79.8667 435.648 70.1333 427.381 64C419.381 57.8667 409.915 54.8 398.981 54.8C388.315 54.8 378.848 57.8667 370.581 64C362.581 70.1333 356.181 79.8667 351.381 93.2C346.848 106.533 344.581 123.733 344.581 144.8C344.581 165.867 346.848 183.067 351.381 196.4C356.181 209.733 362.581 219.467 370.581 225.6C378.848 231.733 388.315 234.8 398.981 234.8ZM547.266 226V182.4L679.266 4.8H747.266L618.066 182.4L586.466 173.2H806.866V226H547.266ZM698.066 284.8V226L700.066 173.2V120.8H761.266V284.8H698.066Z" fill="#0585CD"/>
</svg>
